<svg width="18" height="11" viewBox="0 0 18 11" fill="none" xmlns="http://www.w3.org/2000/svg">
<path d="M17.3332 0.783971C17.0209 0.473552 16.5985 0.299316 16.1582 0.299316C15.7179 0.299316 15.2954 0.473552 14.9832 0.783971L8.99983 6.68397L3.09983 0.783971C2.78756 0.473552 2.36514 0.299316 1.92483 0.299316C1.48452 0.299316 1.0621 0.473552 0.749833 0.783971C0.593619 0.938909 0.469628 1.12324 0.385014 1.32634C0.300399 1.52944 0.256836 1.74728 0.256836 1.9673C0.256836 2.18732 0.300399 2.40517 0.385014 2.60827C0.469628 2.81136 0.593619 2.9957 0.749833 3.15064L7.8165 10.2173C7.97144 10.3735 8.15577 10.4975 8.35887 10.5821C8.56197 10.6667 8.77981 10.7103 8.99983 10.7103C9.21985 10.7103 9.4377 10.6667 9.64079 10.5821C9.84389 10.4975 10.0282 10.3735 10.1832 10.2173L17.3332 3.15064C17.4894 2.9957 17.6134 2.81136 17.698 2.60827C17.7826 2.40517 17.8262 2.18732 17.8262 1.9673C17.8262 1.74728 17.7826 1.52944 17.698 1.32634C17.6134 1.12324 17.4894 0.938909 17.3332 0.783971Z" fill="#333333"/>
</svg>
